<svg width="10" height="10" viewBox="0 0 10 10" fill="none" xmlns="http://www.w3.org/2000/svg">
<path fill-rule="evenodd" clip-rule="evenodd" d="M9.48872 2.88765C10.0745 2.30186 10.0745 1.35211 9.48871 0.766329C8.90292 0.180546 7.95317 0.180553 7.36739 0.766343L5.46275 2.67101L3.55809 0.766374C2.9723 0.180591 2.02255 0.180597 1.43677 0.766387C0.850988 1.35218 0.850994 2.30193 1.43678 2.88771L3.34144 4.79234L1.43682 6.69698C0.851042 7.28277 0.851048 8.23252 1.43684 8.8183C2.02263 9.40409 2.97238 9.40408 3.55816 8.81829L5.46278 6.91365L7.36742 8.81827C7.95321 9.40405 8.90296 9.40405 9.48875 8.81826C10.0745 8.23247 10.0745 7.28272 9.48873 6.69694L7.58408 4.79231L9.48872 2.88765Z" fill="#F7F8F3"/>
</svg>
