<svg width="116" height="106" viewBox="0 0 116 106" fill="none" xmlns="http://www.w3.org/2000/svg">
<g filter="url(#filter0_d_41_474)">
<circle cx="48.245" cy="54" r="34.0665" transform="rotate(-14.315 48.245 54)" fill="#FAFF02"/>
<circle cx="48.245" cy="54" r="33.8165" transform="rotate(-14.315 48.245 54)" stroke="#838602" stroke-width="0.5"/>
</g>
<mask id="path-3-inside-1_41_474" fill="white">
<path fill-rule="evenodd" clip-rule="evenodd" d="M28.3867 79.1424C25.4327 75.4882 23.6592 70.8104 23.6592 65.7115C23.6592 54.0201 32.9831 44.5424 44.4847 44.5424C46.505 44.5424 48.458 44.8348 50.3052 45.3802C55.3177 39.9688 62.4306 36.5902 70.3197 36.5902C82.9226 36.5902 93.5444 45.2124 96.7876 56.9702C97.7197 56.7894 98.6791 56.695 99.6586 56.695C108.683 56.695 115.998 64.7032 115.998 74.5818C115.998 83.0267 110.652 90.1047 103.463 91.9813C102.553 92.297 101.576 92.4685 100.559 92.4685H36.0267C31.1378 92.4685 27.1746 88.5053 27.1746 83.6164C27.1746 81.9842 27.6163 80.4552 28.3867 79.1424Z"/>
</mask>
<path fill-rule="evenodd" clip-rule="evenodd" d="M28.3867 79.1424C25.4327 75.4882 23.6592 70.8104 23.6592 65.7115C23.6592 54.0201 32.9831 44.5424 44.4847 44.5424C46.505 44.5424 48.458 44.8348 50.3052 45.3802C55.3177 39.9688 62.4306 36.5902 70.3197 36.5902C82.9226 36.5902 93.5444 45.2124 96.7876 56.9702C97.7197 56.7894 98.6791 56.695 99.6586 56.695C108.683 56.695 115.998 64.7032 115.998 74.5818C115.998 83.0267 110.652 90.1047 103.463 91.9813C102.553 92.297 101.576 92.4685 100.559 92.4685H36.0267C31.1378 92.4685 27.1746 88.5053 27.1746 83.6164C27.1746 81.9842 27.6163 80.4552 28.3867 79.1424Z" fill="url(#paint0_linear_41_474)"/>
<path d="M28.3867 79.1424L28.8179 79.3955L28.993 79.0972L28.7756 78.8281L28.3867 79.1424ZM50.3052 45.3802L50.1636 45.8597L50.4611 45.9476L50.672 45.72L50.3052 45.3802ZM96.7876 56.9702L96.3056 57.1032L96.4286 57.5492L96.8828 57.4611L96.7876 56.9702ZM103.463 91.9813L103.336 91.4975L103.317 91.5024L103.299 91.5089L103.463 91.9813ZM28.7756 78.8281C25.8913 75.2602 24.1592 70.6926 24.1592 65.7115H23.1592C23.1592 70.9281 24.974 75.7162 27.9979 79.4568L28.7756 78.8281ZM24.1592 65.7115C24.1592 54.2885 33.267 45.0424 44.4847 45.0424V44.0424C32.6993 44.0424 23.1592 53.7517 23.1592 65.7115H24.1592ZM44.4847 45.0424C46.4565 45.0424 48.3619 45.3277 50.1636 45.8597L50.4468 44.9007C48.5542 44.3418 46.5535 44.0424 44.4847 44.0424V45.0424ZM50.672 45.72C55.5949 40.4054 62.5769 37.0902 70.3197 37.0902V36.0902C62.2843 36.0902 55.0406 39.5322 49.9383 45.0404L50.672 45.72ZM70.3197 37.0902C82.687 37.0902 93.1193 45.5517 96.3056 57.1032L97.2696 56.8373C93.9694 44.873 83.1582 36.0902 70.3197 36.0902V37.0902ZM96.8828 57.4611C97.7838 57.2863 98.7113 57.195 99.6586 57.195V56.195C98.6469 56.195 97.6556 56.2925 96.6923 56.4794L96.8828 57.4611ZM99.6586 57.195C108.365 57.195 115.498 64.9358 115.498 74.5818H116.498C116.498 64.4706 109 56.195 99.6586 56.195V57.195ZM115.498 74.5818C115.498 82.8221 110.284 89.6839 103.336 91.4975L103.589 92.465C111.02 90.5254 116.498 83.2312 116.498 74.5818H115.498ZM103.299 91.5089C102.441 91.8066 101.519 91.9685 100.559 91.9685V92.9685C101.632 92.9685 102.665 92.7874 103.626 92.4536L103.299 91.5089ZM100.559 91.9685H36.0267V92.9685H100.559V91.9685ZM36.0267 91.9685C31.4139 91.9685 27.6746 88.2292 27.6746 83.6164H26.6746C26.6746 88.7814 30.8616 92.9685 36.0267 92.9685V91.9685ZM27.6746 83.6164C27.6746 82.0756 28.0913 80.6337 28.8179 79.3955L27.9555 78.8894C27.1413 80.2768 26.6746 81.8929 26.6746 83.6164H27.6746Z" fill="#016096" mask="url(#path-3-inside-1_41_474)"/>
<defs>
<filter id="filter0_d_41_474" x="0.170283" y="0.925293" width="104.149" height="104.149" filterUnits="userSpaceOnUse" color-interpolation-filters="sRGB">
<feFlood flood-opacity="0" result="BackgroundImageFix"/>
<feColorMatrix in="SourceAlpha" type="matrix" values="0 0 0 0 0 0 0 0 0 0 0 0 0 0 0 0 0 0 127 0" result="hardAlpha"/>
<feMorphology radius="3" operator="dilate" in="SourceAlpha" result="effect1_dropShadow_41_474"/>
<feOffset dx="4" dy="-1"/>
<feGaussianBlur stdDeviation="7.5"/>
<feComposite in2="hardAlpha" operator="out"/>
<feColorMatrix type="matrix" values="0 0 0 0 0.754167 0 0 0 0 0.754167 0 0 0 0 0.754167 0 0 0 0.25 0"/>
<feBlend mode="normal" in2="BackgroundImageFix" result="effect1_dropShadow_41_474"/>
<feBlend mode="normal" in="SourceGraphic" in2="effect1_dropShadow_41_474" result="shape"/>
</filter>
<linearGradient id="paint0_linear_41_474" x1="16.9914" y1="0.0559884" x2="85.3008" y2="92.4685" gradientUnits="userSpaceOnUse">
<stop stop-color="#CDF6FF"/>
<stop offset="1" stop-color="#3698CF"/>
</linearGradient>
</defs>
</svg>
