<svg width="63" height="39" viewBox="0 0 63 39" fill="none" xmlns="http://www.w3.org/2000/svg">
<mask id="path-1-inside-1_21_250" fill="white">
<path fill-rule="evenodd" clip-rule="evenodd" d="M51.6878 38.2146L8.58725 38.2146C5.27579 38.2146 2.59133 35.5301 2.59133 32.2186C2.59133 31.1131 2.89053 30.0775 3.41238 29.1882C1.41147 26.7131 0.210251 23.5446 0.210251 20.0909C0.210251 12.1718 6.52572 5.75214 14.3162 5.75214C15.6846 5.75214 17.0075 5.9502 18.2587 6.31966C21.6539 2.65426 26.4717 0.365784 31.8154 0.365784C40.3518 0.365784 47.5464 6.20596 49.7432 14.1701C50.3745 14.0476 51.0244 13.9836 51.6878 13.9836C57.8002 13.9836 62.7553 19.4079 62.7553 26.0991C62.7553 31.8192 59.1341 36.6135 54.2643 37.8845C53.6482 38.0984 52.9864 38.2146 52.2975 38.2146L51.6878 38.2146Z"/>
</mask>
<path fill-rule="evenodd" clip-rule="evenodd" d="M51.6878 38.2146L8.58725 38.2146C5.27579 38.2146 2.59133 35.5301 2.59133 32.2186C2.59133 31.1131 2.89053 30.0775 3.41238 29.1882C1.41147 26.7131 0.210251 23.5446 0.210251 20.0909C0.210251 12.1718 6.52572 5.75214 14.3162 5.75214C15.6846 5.75214 17.0075 5.9502 18.2587 6.31966C21.6539 2.65426 26.4717 0.365784 31.8154 0.365784C40.3518 0.365784 47.5464 6.20596 49.7432 14.1701C50.3745 14.0476 51.0244 13.9836 51.6878 13.9836C57.8002 13.9836 62.7553 19.4079 62.7553 26.0991C62.7553 31.8192 59.1341 36.6135 54.2643 37.8845C53.6482 38.0984 52.9864 38.2146 52.2975 38.2146L51.6878 38.2146Z" fill="url(#paint0_linear_21_250)"/>
<path d="M51.6878 38.2146L51.6879 37.7146L51.6878 37.7146L51.6878 38.2146ZM8.58725 38.2146L8.58725 38.7146L8.58725 38.7146L8.58725 38.2146ZM3.41238 29.1882L3.84361 29.4413L4.01871 29.1429L3.80122 28.8739L3.41238 29.1882ZM18.2587 6.31966L18.1171 6.79919L18.4146 6.88706L18.6255 6.65943L18.2587 6.31966ZM49.7432 14.1701L49.2612 14.303L49.3842 14.749L49.8384 14.6609L49.7432 14.1701ZM54.2643 37.8845L54.138 37.4007L54.119 37.4057L54.1004 37.4122L54.2643 37.8845ZM52.2975 38.2146L52.2975 38.7146H52.2975V38.2146ZM51.6878 37.7146L8.58725 37.7146L8.58725 38.7146L51.6878 38.7146L51.6878 37.7146ZM8.58725 37.7146C5.55194 37.7146 3.09133 35.254 3.09133 32.2186H2.09133C2.09133 35.8062 4.99965 38.7146 8.58725 38.7146V37.7146ZM3.09133 32.2186C3.09133 31.2045 3.36556 30.2559 3.84361 29.4413L2.98116 28.9352C2.4155 29.899 2.09133 31.0217 2.09133 32.2186H3.09133ZM3.80122 28.8739C1.87011 26.4851 0.710251 23.4268 0.710251 20.0909H-0.289749C-0.289749 23.6623 0.952827 26.9411 3.02354 29.5026L3.80122 28.8739ZM0.710251 20.0909C0.710251 12.4402 6.80955 6.25214 14.3162 6.25214V5.25214C6.2419 5.25214 -0.289749 11.9034 -0.289749 20.0909H0.710251ZM14.3162 6.25214C15.6361 6.25214 16.9114 6.44315 18.1171 6.79919L18.4003 5.84013C17.1037 5.45725 15.7331 5.25214 14.3162 5.25214V6.25214ZM18.6255 6.65943C21.931 3.09088 26.6181 0.865784 31.8154 0.865784V-0.134216C26.3254 -0.134216 21.3768 2.21764 17.8918 5.97988L18.6255 6.65943ZM31.8154 0.865784C40.1163 0.865784 47.1213 6.54532 49.2612 14.303L50.2252 14.0371C47.9715 5.8666 40.5874 -0.134216 31.8154 -0.134216V0.865784ZM49.8384 14.6609C50.4386 14.5444 51.0566 14.4836 51.6878 14.4836V13.4836C50.9922 13.4836 50.3104 13.5507 49.6479 13.6792L49.8384 14.6609ZM51.6878 14.4836C57.4825 14.4836 62.2553 19.6405 62.2553 26.0991H63.2553C63.2553 19.1753 58.118 13.4836 51.6878 13.4836V14.4836ZM62.2553 26.0991C62.2553 31.6147 58.7662 36.1927 54.138 37.4007L54.3906 38.3683C59.5019 37.0342 63.2553 32.0238 63.2553 26.0991H62.2553ZM54.1004 37.4122C53.5362 37.608 52.9299 37.7146 52.2975 37.7146V38.7146C53.043 38.7146 53.7601 38.5888 54.4282 38.3569L54.1004 37.4122ZM52.2975 37.7146L51.6879 37.7146L51.6878 38.7146L52.2975 38.7146L52.2975 37.7146Z" fill="#016096" mask="url(#path-1-inside-1_21_250)"/>
<defs>
<linearGradient id="paint0_linear_21_250" x1="-4.30616" y1="-24.3804" x2="41.9627" y2="38.2145" gradientUnits="userSpaceOnUse">
<stop stop-color="#CDF6FF"/>
<stop offset="1" stop-color="#3698CF"/>
</linearGradient>
</defs>
</svg>
