<svg width="68" height="31" viewBox="0 0 68 31" fill="none" xmlns="http://www.w3.org/2000/svg">
<path d="M66.5262 3.47471C66.7846 3.57205 67.073 3.44148 67.1704 3.18307C67.2677 2.92466 67.1371 2.63625 66.8787 2.5389L66.5262 3.47471ZM0.466565 3.44508C7.31092 7.20316 13.2521 8.46276 18.7318 8.37932C24.1991 8.29606 29.18 6.87515 34.085 5.32082C43.9093 2.20766 53.4711 -1.44331 66.5262 3.47471L66.8787 2.5389C53.4542 -2.51828 43.5637 1.26818 33.7829 4.36754C28.8855 5.91947 24.0256 7.29859 18.7165 7.37943C13.4198 7.46009 7.64883 6.24788 0.947863 2.56853L0.466565 3.44508Z" fill="url(#paint0_linear_64_54)"/>
<path d="M66.5262 7.13144C66.7846 7.22879 67.073 7.09822 67.1704 6.83981C67.2677 6.58139 67.1371 6.29299 66.8787 6.19564L66.5262 7.13144ZM0.466565 7.10182C7.31092 10.8599 13.2521 12.1195 18.7318 12.0361C24.1991 11.9528 29.18 10.5319 34.085 8.97756C43.9093 5.8644 53.4711 2.21343 66.5262 7.13144L66.8787 6.19564C53.4542 1.13845 43.5637 4.92491 33.7829 8.02428C28.8855 9.57621 24.0256 10.9553 18.7165 11.0362C13.4198 11.1168 7.64883 9.90462 0.947863 6.22526L0.466565 7.10182Z" fill="url(#paint1_linear_64_54)"/>
<path d="M66.5262 14.4449C66.7846 14.5423 67.073 14.4117 67.1704 14.1533C67.2677 13.8949 67.1371 13.6065 66.8787 13.5091L66.5262 14.4449ZM0.466565 14.4153C7.31092 18.1734 13.2521 19.433 18.7318 19.3495C24.1991 19.2663 29.18 17.8454 34.085 16.2911C43.9093 13.1779 53.4711 9.52692 66.5262 14.4449L66.8787 13.5091C53.4542 8.45195 43.5637 12.2384 33.7829 15.3378C28.8855 16.8897 24.0256 18.2688 18.7165 18.3497C13.4198 18.4303 7.64883 17.2181 0.947863 13.5388L0.466565 14.4153Z" fill="url(#paint2_linear_64_54)"/>
<path d="M66.5262 21.7584C66.7846 21.8558 67.073 21.7252 67.1704 21.4668C67.2677 21.2084 67.1371 20.92 66.8787 20.8226L66.5262 21.7584ZM0.466565 21.7288C7.31092 25.4869 13.2521 26.7465 18.7318 26.663C24.1991 26.5798 29.18 25.1589 34.085 23.6045C43.9093 20.4914 53.4711 16.8404 66.5262 21.7584L66.8787 20.8226C53.4542 15.7654 43.5637 19.5519 33.7829 22.6513C28.8855 24.2032 24.0256 25.5823 18.7165 25.6632C13.4198 25.7438 7.64883 24.5316 0.947863 20.8522L0.466565 21.7288Z" fill="url(#paint3_linear_64_54)"/>
<path d="M66.5262 10.7882C66.7846 10.8855 67.073 10.755 67.1704 10.4966C67.2677 10.2381 67.1371 9.94974 66.8787 9.8524L66.5262 10.7882ZM0.466565 10.7586C7.31092 14.5167 13.2521 15.7763 18.7318 15.6928C24.1991 15.6096 29.18 14.1886 34.085 12.6343C43.9093 9.52116 53.4711 5.87019 66.5262 10.7882L66.8787 9.8524C53.4542 4.79521 43.5637 8.58167 33.7829 11.681C28.8855 13.233 24.0256 14.6121 18.7165 14.6929C13.4198 14.7736 7.64883 13.5614 0.947863 9.88202L0.466565 10.7586Z" fill="url(#paint4_linear_64_54)"/>
<path d="M66.5262 18.1017C66.7846 18.199 67.073 18.0685 67.1704 17.8101C67.2677 17.5516 67.1371 17.2632 66.8787 17.1659L66.5262 18.1017ZM0.466565 18.0721C7.31092 21.8301 13.2521 23.0897 18.7318 23.0063C24.1991 22.923 29.18 21.5021 34.085 19.9478C43.9093 16.8346 53.4711 13.1837 66.5262 18.1017L66.8787 17.1659C53.4542 12.1087 43.5637 15.8952 33.7829 18.9945C28.8855 20.5465 24.0256 21.9256 18.7165 22.0064C13.4198 22.0871 7.64883 20.8749 0.947863 17.1955L0.466565 18.0721Z" fill="url(#paint5_linear_64_54)"/>
<path d="M66.5262 25.4152C66.7846 25.5125 67.073 25.3819 67.1704 25.1235C67.2677 24.8651 67.1371 24.5767 66.8787 24.4794L66.5262 25.4152ZM0.466565 25.3855C7.31092 29.1436 13.2521 30.4032 18.7318 30.3198C24.1991 30.2365 29.18 28.8156 34.085 27.2613C43.9093 24.1481 53.4711 20.4972 66.5262 25.4152L66.8787 24.4794C53.4542 19.4222 43.5637 23.2086 33.7829 26.308C28.8855 27.8599 24.0256 29.239 18.7165 29.3199C13.4198 29.4006 7.64883 28.1883 0.947863 24.509L0.466565 25.3855Z" fill="url(#paint6_linear_64_54)"/>
<defs>
<linearGradient id="paint0_linear_64_54" x1="-3.36656" y1="4.22643" x2="74.0353" y2="4.22644" gradientUnits="userSpaceOnUse">
<stop stop-color="#989EA0"/>
<stop offset="1" stop-color="#989EA0" stop-opacity="0"/>
</linearGradient>
<linearGradient id="paint1_linear_64_54" x1="-3.36656" y1="7.88317" x2="74.0353" y2="7.88318" gradientUnits="userSpaceOnUse">
<stop stop-color="#989EA0" stop-opacity="0"/>
<stop offset="1" stop-color="#989EA0"/>
</linearGradient>
<linearGradient id="paint2_linear_64_54" x1="-3.36656" y1="15.1967" x2="74.0353" y2="15.1967" gradientUnits="userSpaceOnUse">
<stop stop-color="#989EA0" stop-opacity="0"/>
<stop offset="1" stop-color="#989EA0"/>
</linearGradient>
<linearGradient id="paint3_linear_64_54" x1="-3.36656" y1="22.5102" x2="74.0353" y2="22.5102" gradientUnits="userSpaceOnUse">
<stop stop-color="#989EA0" stop-opacity="0"/>
<stop offset="1" stop-color="#989EA0"/>
</linearGradient>
<linearGradient id="paint4_linear_64_54" x1="-3.36656" y1="11.5399" x2="74.0353" y2="11.5399" gradientUnits="userSpaceOnUse">
<stop stop-color="#989EA0"/>
<stop offset="1" stop-color="#989EA0" stop-opacity="0"/>
</linearGradient>
<linearGradient id="paint5_linear_64_54" x1="-3.36656" y1="18.8534" x2="74.0353" y2="18.8534" gradientUnits="userSpaceOnUse">
<stop stop-color="#989EA0"/>
<stop offset="1" stop-color="#989EA0" stop-opacity="0"/>
</linearGradient>
<linearGradient id="paint6_linear_64_54" x1="-3.36656" y1="26.1669" x2="74.0353" y2="26.1669" gradientUnits="userSpaceOnUse">
<stop stop-color="#989EA0"/>
<stop offset="1" stop-color="#989EA0" stop-opacity="0"/>
</linearGradient>
</defs>
</svg>
