<svg width="49" height="28" viewBox="0 0 49 28" fill="none" xmlns="http://www.w3.org/2000/svg">
<path d="M10.3603 12.6216C10.3603 15.4118 8.09835 17.6737 5.30814 17.6737C2.51793 17.6737 0.256017 15.4118 0.256017 12.6216C0.256017 11.2204 0.825284 8.23698 1.74758 5.60274C2.2086 4.28601 2.75662 3.0601 3.36355 2.16437C3.97286 1.26514 4.63088 0.714245 5.30814 0.714245C5.9854 0.714245 6.64342 1.26514 7.25272 2.16437C7.85965 3.0601 8.40767 4.28601 8.86869 5.60274C9.79099 8.23698 10.3603 11.2204 10.3603 12.6216Z" fill="url(#paint0_linear_21_291)" stroke="#260164" stroke-width="0.1"/>
<path d="M29.3451 22.1216C29.3451 24.9118 27.0832 27.1737 24.293 27.1737C21.5028 27.1737 19.2409 24.9118 19.2409 22.1216C19.2409 20.7204 19.8102 17.737 20.7325 15.1027C21.1935 13.786 21.7415 12.5601 22.3484 11.6644C22.9577 10.7651 23.6158 10.2142 24.293 10.2142C24.9703 10.2142 25.6283 10.7651 26.2376 11.6644C26.8445 12.5601 27.3926 13.786 27.8536 15.1027C28.7759 17.737 29.3451 20.7204 29.3451 22.1216Z" fill="url(#paint1_linear_21_291)" stroke="#260164" stroke-width="0.1"/>
<path d="M48.33 12.6216C48.33 15.4118 46.0681 17.6737 43.2779 17.6737C40.4877 17.6737 38.2258 15.4118 38.2258 12.6216C38.2258 11.2204 38.795 8.23698 39.7173 5.60274C40.1784 4.28601 40.7264 3.0601 41.3333 2.16437C41.9426 1.26514 42.6006 0.714245 43.2779 0.714245C43.9552 0.714245 44.6132 1.26514 45.2225 2.16437C45.8294 3.0601 46.3774 4.28601 46.8384 5.60274C47.7607 8.23698 48.33 11.2204 48.33 12.6216Z" fill="url(#paint2_linear_21_291)" stroke="#260164" stroke-width="0.1"/>
<defs>
<linearGradient id="paint0_linear_21_291" x1="5.30814" y1="0.664246" x2="5.30814" y2="17.7237" gradientUnits="userSpaceOnUse">
<stop stop-color="#2E10A4" stop-opacity="0"/>
<stop stop-color="#2E10A4" stop-opacity="0"/>
<stop offset="1" stop-color="#2E10A4"/>
</linearGradient>
<linearGradient id="paint1_linear_21_291" x1="24.293" y1="10.1642" x2="24.293" y2="27.2237" gradientUnits="userSpaceOnUse">
<stop stop-color="#2E10A4" stop-opacity="0"/>
<stop stop-color="#2E10A4" stop-opacity="0"/>
<stop offset="1" stop-color="#2E10A4"/>
</linearGradient>
<linearGradient id="paint2_linear_21_291" x1="43.2779" y1="0.664246" x2="43.2779" y2="17.7237" gradientUnits="userSpaceOnUse">
<stop stop-color="#2E10A4" stop-opacity="0"/>
<stop stop-color="#2E10A4" stop-opacity="0"/>
<stop offset="1" stop-color="#2E10A4"/>
</linearGradient>
</defs>
</svg>
