<svg width="68" height="50" viewBox="0 0 68 50" fill="none" xmlns="http://www.w3.org/2000/svg">
<mask id="path-1-inside-1_21_308" fill="white">
<path fill-rule="evenodd" clip-rule="evenodd" d="M57.0471 31.1492L66.097 29.1349L57.2182 25.2831L59.8327 22.0743L56.1172 22.9065L56.9948 13.7118L50.337 21.2498L47.4129 16.9359L47.3442 20.9996L39.5138 17.6026L44.2169 25.5716L39.5194 26.6237L43.9658 28.4633L37.8122 35.4303L47.1351 33.3553L47.0608 37.7495L49.5795 34.6582L54.2416 42.5577L55.1454 33.0885L59.6151 34.9378L57.0471 31.1492Z"/>
</mask>
<path d="M66.097 29.1349L66.3143 30.111L69.3185 29.4424L66.495 28.2175L66.097 29.1349ZM57.0471 31.1492L56.8298 30.1731L55.394 30.4927L56.2193 31.7103L57.0471 31.1492ZM57.2182 25.2831L56.443 24.6515L55.609 25.6751L56.8203 26.2005L57.2182 25.2831ZM59.8327 22.0743L60.608 22.706L62.4319 20.4675L59.6142 21.0985L59.8327 22.0743ZM56.1172 22.9065L55.1217 22.8115L54.9907 24.1835L56.3357 23.8823L56.1172 22.9065ZM56.9948 13.7118L57.9902 13.8069L58.2827 10.7431L56.2453 13.0499L56.9948 13.7118ZM50.337 21.2498L49.5092 21.8109L50.2328 22.8783L51.0865 21.9118L50.337 21.2498ZM47.4129 16.9359L48.2407 16.3748L46.4665 13.7575L46.4131 16.919L47.4129 16.9359ZM47.3442 20.9996L46.9462 21.917L48.3187 22.5124L48.344 21.0165L47.3442 20.9996ZM39.5138 17.6026L39.9118 16.6852L37.0883 15.4604L38.6526 18.1109L39.5138 17.6026ZM44.2169 25.5716L44.4354 26.5475L45.7767 26.2471L45.0781 25.0634L44.2169 25.5716ZM39.5194 26.6237L39.3009 25.6478L36.2153 26.3389L39.1371 27.5477L39.5194 26.6237ZM43.9658 28.4633L44.7153 29.1253L45.643 28.0749L44.3481 27.5392L43.9658 28.4633ZM37.8122 35.4303L37.0627 34.7683L35.0253 37.0751L38.0295 36.4065L37.8122 35.4303ZM47.1351 33.3553L48.135 33.3722L48.1565 32.1035L46.9179 32.3792L47.1351 33.3553ZM47.0608 37.7495L46.0609 37.7325L46.0121 40.6197L47.8361 38.3811L47.0608 37.7495ZM49.5795 34.6582L50.4407 34.15L49.7111 32.9136L48.8043 34.0266L49.5795 34.6582ZM54.2416 42.5577L53.3804 43.066L54.9446 45.7165L55.237 42.6527L54.2416 42.5577ZM55.1454 33.0885L55.5277 32.1645L54.2783 31.6476L54.1499 32.9935L55.1454 33.0885ZM59.6151 34.9378L59.2328 35.8618L62.3135 37.1364L60.4429 34.3767L59.6151 34.9378ZM65.8798 28.1588L56.8298 30.1731L57.2643 32.1253L66.3143 30.111L65.8798 28.1588ZM56.8203 26.2005L65.6991 30.0523L66.495 28.2175L57.6162 24.3658L56.8203 26.2005ZM59.0575 21.4427L56.443 24.6515L57.9935 25.9148L60.608 22.706L59.0575 21.4427ZM56.3357 23.8823L60.0513 23.0502L59.6142 21.0985L55.8986 21.9306L56.3357 23.8823ZM55.9993 13.6168L55.1217 22.8115L57.1127 23.0015L57.9902 13.8069L55.9993 13.6168ZM51.0865 21.9118L57.7443 14.3738L56.2453 13.0499L49.5875 20.5878L51.0865 21.9118ZM46.5851 17.497L49.5092 21.8109L51.1647 20.6887L48.2407 16.3748L46.5851 17.497ZM48.344 21.0165L48.4128 16.9528L46.4131 16.919L46.3443 20.9827L48.344 21.0165ZM39.1158 18.52L46.9462 21.917L47.7421 20.0822L39.9118 16.6852L39.1158 18.52ZM45.0781 25.0634L40.375 17.0944L38.6526 18.1109L43.3557 26.0799L45.0781 25.0634ZM39.738 27.5995L44.4354 26.5475L43.9983 24.5958L39.3009 25.6478L39.738 27.5995ZM44.3481 27.5392L39.9017 25.6996L39.1371 27.5477L43.5835 29.3873L44.3481 27.5392ZM38.5617 36.0923L44.7153 29.1253L43.2163 27.8013L37.0627 34.7683L38.5617 36.0923ZM46.9179 32.3792L37.595 34.4542L38.0295 36.4065L47.3524 34.3314L46.9179 32.3792ZM48.0607 37.7664L48.135 33.3722L46.1353 33.3384L46.0609 37.7325L48.0607 37.7664ZM48.8043 34.0266L46.2856 37.1178L47.8361 38.3811L50.3548 35.2899L48.8043 34.0266ZM55.1028 42.0494L50.4407 34.15L48.7183 35.1665L53.3804 43.066L55.1028 42.0494ZM54.1499 32.9935L53.2461 42.4627L55.237 42.6527L56.1408 33.1836L54.1499 32.9935ZM59.9974 34.0138L55.5277 32.1645L54.7631 34.0126L59.2328 35.8618L59.9974 34.0138ZM56.2193 31.7103L58.7874 35.4989L60.4429 34.3767L57.8749 30.5881L56.2193 31.7103Z" fill="#01A4FF" mask="url(#path-1-inside-1_21_308)"/>
<mask id="path-3-inside-2_21_308" fill="white">
<path fill-rule="evenodd" clip-rule="evenodd" d="M14.7416 12.0352L8.55886 8.44176L11.5755 15.2701L8.41488 15.7207L10.956 17.1931L5.64794 21.9448L13.365 21.1563L12.7651 25.1309L14.9302 22.8639L17.5906 28.886L19.0947 21.909L22.3073 23.7705L20.7499 20.4016L27.8825 19.6727L21.5133 15.9709L23.8544 13.5195L20.8097 13.9536L22.3006 7.03753L16.8341 11.9311L15.2684 8.54446L14.7416 12.0352Z"/>
</mask>
<path d="M8.55886 8.44176L9.06136 7.57718L6.40046 6.03065L7.64415 8.84586L8.55886 8.44176ZM14.7416 12.0352L14.2391 12.8998L15.5109 13.6389L15.7304 12.1844L14.7416 12.0352ZM11.5755 15.2701L11.7166 16.2601L13.0237 16.0738L12.4902 14.866L11.5755 15.2701ZM8.41488 15.7207L8.27373 14.7307L5.41511 15.1383L7.91352 16.586L8.41488 15.7207ZM10.956 17.1931L11.623 17.9382L12.6499 17.0189L11.4573 16.3279L10.956 17.1931ZM5.64794 21.9448L4.98096 21.1998L2.68786 23.2525L5.7496 22.9397L5.64794 21.9448ZM13.365 21.1563L14.3538 21.3055L14.5463 20.0303L13.2633 20.1614L13.365 21.1563ZM12.7651 25.1309L11.7763 24.9817L11.3044 28.1083L13.4883 25.8216L12.7651 25.1309ZM14.9302 22.8639L15.8449 22.4598L15.2403 21.0913L14.207 22.1732L14.9302 22.8639ZM17.5906 28.886L16.6759 29.2901L17.9196 32.1053L18.5682 29.0967L17.5906 28.886ZM19.0947 21.909L19.596 21.0438L18.4068 20.3547L18.1171 21.6983L19.0947 21.909ZM22.3073 23.7705L21.8059 24.6358L24.5418 26.221L23.215 23.3509L22.3073 23.7705ZM20.7499 20.4016L20.6482 19.4068L19.2542 19.5492L19.8422 20.8212L20.7499 20.4016ZM27.8825 19.6727L27.9842 20.6676L31.0459 20.3547L28.385 18.8082L27.8825 19.6727ZM21.5133 15.9709L20.7901 15.2802L19.9137 16.1979L21.0108 16.8355L21.5133 15.9709ZM23.8544 13.5195L24.5776 14.2102L26.5719 12.122L23.7133 12.5295L23.8544 13.5195ZM20.8097 13.9536L19.8321 13.7429L19.5296 15.1462L20.9508 14.9436L20.8097 13.9536ZM22.3006 7.03753L23.2781 7.24826L23.9267 4.23969L21.6336 6.29245L22.3006 7.03753ZM16.8341 11.9311L15.9264 12.3507L16.4937 13.578L17.501 12.6762L16.8341 11.9311ZM15.2684 8.54446L16.1761 8.12484L14.7772 5.09867L14.2796 8.39523L15.2684 8.54446ZM8.05636 9.30634L14.2391 12.8998L15.2441 11.1706L9.06136 7.57718L8.05636 9.30634ZM12.4902 14.866L9.47358 8.03766L7.64415 8.84586L10.6607 15.6742L12.4902 14.866ZM8.55602 16.7107L11.7166 16.2601L11.4343 14.2801L8.27373 14.7307L8.55602 16.7107ZM11.4573 16.3279L8.91623 14.8555L7.91352 16.586L10.4546 18.0584L11.4573 16.3279ZM6.31493 22.6899L11.623 17.9382L10.289 16.4481L4.98096 21.1998L6.31493 22.6899ZM13.2633 20.1614L5.54629 20.95L5.7496 22.9397L13.4667 22.1511L13.2633 20.1614ZM13.7539 25.2802L14.3538 21.3055L12.3762 21.007L11.7763 24.9817L13.7539 25.2802ZM14.207 22.1732L12.0419 24.4403L13.4883 25.8216L15.6534 23.5546L14.207 22.1732ZM18.5053 28.4819L15.8449 22.4598L14.0155 23.268L16.6759 29.2901L18.5053 28.4819ZM18.1171 21.6983L16.6131 28.6752L18.5682 29.0967L20.0722 22.1197L18.1171 21.6983ZM22.8086 22.9053L19.596 21.0438L18.5933 22.7743L21.8059 24.6358L22.8086 22.9053ZM19.8422 20.8212L21.3996 24.1901L23.215 23.3509L21.6576 19.982L19.8422 20.8212ZM27.7809 18.6779L20.6482 19.4068L20.8515 21.3964L27.9842 20.6676L27.7809 18.6779ZM21.0108 16.8355L27.38 20.5373L28.385 18.8082L22.0158 15.1063L21.0108 16.8355ZM23.1312 12.8289L20.7901 15.2802L22.2364 16.6616L24.5776 14.2102L23.1312 12.8289ZM20.9508 14.9436L23.9956 14.5095L23.7133 12.5295L20.6685 12.9636L20.9508 14.9436ZM21.323 6.82679L19.8321 13.7429L21.7872 14.1643L23.2781 7.24826L21.323 6.82679ZM17.501 12.6762L22.9676 7.7826L21.6336 6.29245L16.1671 11.186L17.501 12.6762ZM14.3607 8.96408L15.9264 12.3507L17.7418 11.5115L16.1761 8.12484L14.3607 8.96408ZM15.7304 12.1844L16.2572 8.6937L14.2796 8.39523L13.7528 11.886L15.7304 12.1844Z" fill="#01A4FF" mask="url(#path-3-inside-2_21_308)"/>
<mask id="path-5-inside-3_21_308" fill="white">
<path fill-rule="evenodd" clip-rule="evenodd" d="M14.7416 12.0352L8.55886 8.44176L11.5755 15.2701L8.41488 15.7207L10.956 17.1931L5.64794 21.9448L13.365 21.1563L12.7651 25.1309L14.9302 22.8639L17.5906 28.886L19.0947 21.909L22.3073 23.7705L20.7499 20.4016L27.8825 19.6727L21.5133 15.9709L23.8544 13.5195L20.8097 13.9536L22.3006 7.03753L16.8341 11.9311L15.2684 8.54446L14.7416 12.0352Z"/>
</mask>
<path d="M8.55886 8.44176L9.06136 7.57718L6.40046 6.03065L7.64415 8.84586L8.55886 8.44176ZM14.7416 12.0352L14.2391 12.8998L15.5109 13.6389L15.7304 12.1844L14.7416 12.0352ZM11.5755 15.2701L11.7166 16.2601L13.0237 16.0738L12.4902 14.866L11.5755 15.2701ZM8.41488 15.7207L8.27373 14.7307L5.41511 15.1383L7.91352 16.586L8.41488 15.7207ZM10.956 17.1931L11.623 17.9382L12.6499 17.0189L11.4573 16.3279L10.956 17.1931ZM5.64794 21.9448L4.98096 21.1998L2.68786 23.2525L5.7496 22.9397L5.64794 21.9448ZM13.365 21.1563L14.3538 21.3055L14.5463 20.0303L13.2633 20.1614L13.365 21.1563ZM12.7651 25.1309L11.7763 24.9817L11.3044 28.1083L13.4883 25.8216L12.7651 25.1309ZM14.9302 22.8639L15.8449 22.4598L15.2403 21.0913L14.207 22.1732L14.9302 22.8639ZM17.5906 28.886L16.6759 29.2901L17.9196 32.1053L18.5682 29.0967L17.5906 28.886ZM19.0947 21.909L19.596 21.0438L18.4068 20.3547L18.1171 21.6983L19.0947 21.909ZM22.3073 23.7705L21.8059 24.6358L24.5418 26.221L23.215 23.3509L22.3073 23.7705ZM20.7499 20.4016L20.6482 19.4068L19.2542 19.5492L19.8422 20.8212L20.7499 20.4016ZM27.8825 19.6727L27.9842 20.6676L31.0459 20.3547L28.385 18.8082L27.8825 19.6727ZM21.5133 15.9709L20.7901 15.2802L19.9137 16.1979L21.0108 16.8355L21.5133 15.9709ZM23.8544 13.5195L24.5776 14.2102L26.5719 12.122L23.7133 12.5295L23.8544 13.5195ZM20.8097 13.9536L19.8321 13.7429L19.5296 15.1462L20.9508 14.9436L20.8097 13.9536ZM22.3006 7.03753L23.2781 7.24826L23.9267 4.23969L21.6336 6.29245L22.3006 7.03753ZM16.8341 11.9311L15.9264 12.3507L16.4937 13.578L17.501 12.6762L16.8341 11.9311ZM15.2684 8.54446L16.1761 8.12484L14.7772 5.09867L14.2796 8.39523L15.2684 8.54446ZM8.05636 9.30634L14.2391 12.8998L15.2441 11.1706L9.06136 7.57718L8.05636 9.30634ZM12.4902 14.866L9.47358 8.03766L7.64415 8.84586L10.6607 15.6742L12.4902 14.866ZM8.55602 16.7107L11.7166 16.2601L11.4343 14.2801L8.27373 14.7307L8.55602 16.7107ZM11.4573 16.3279L8.91623 14.8555L7.91352 16.586L10.4546 18.0584L11.4573 16.3279ZM6.31493 22.6899L11.623 17.9382L10.289 16.4481L4.98096 21.1998L6.31493 22.6899ZM13.2633 20.1614L5.54629 20.95L5.7496 22.9397L13.4667 22.1511L13.2633 20.1614ZM13.7539 25.2802L14.3538 21.3055L12.3762 21.007L11.7763 24.9817L13.7539 25.2802ZM14.207 22.1732L12.0419 24.4403L13.4883 25.8216L15.6534 23.5546L14.207 22.1732ZM18.5053 28.4819L15.8449 22.4598L14.0155 23.268L16.6759 29.2901L18.5053 28.4819ZM18.1171 21.6983L16.6131 28.6752L18.5682 29.0967L20.0722 22.1197L18.1171 21.6983ZM22.8086 22.9053L19.596 21.0438L18.5933 22.7743L21.8059 24.6358L22.8086 22.9053ZM19.8422 20.8212L21.3996 24.1901L23.215 23.3509L21.6576 19.982L19.8422 20.8212ZM27.7809 18.6779L20.6482 19.4068L20.8515 21.3964L27.9842 20.6676L27.7809 18.6779ZM21.0108 16.8355L27.38 20.5373L28.385 18.8082L22.0158 15.1063L21.0108 16.8355ZM23.1312 12.8289L20.7901 15.2802L22.2364 16.6616L24.5776 14.2102L23.1312 12.8289ZM20.9508 14.9436L23.9956 14.5095L23.7133 12.5295L20.6685 12.9636L20.9508 14.9436ZM21.323 6.82679L19.8321 13.7429L21.7872 14.1643L23.2781 7.24826L21.323 6.82679ZM17.501 12.6762L22.9676 7.7826L21.6336 6.29245L16.1671 11.186L17.501 12.6762ZM14.3607 8.96408L15.9264 12.3507L17.7418 11.5115L16.1761 8.12484L14.3607 8.96408ZM15.7304 12.1844L16.2572 8.6937L14.2796 8.39523L13.7528 11.886L15.7304 12.1844Z" fill="#01A4FF" mask="url(#path-5-inside-3_21_308)"/>
<mask id="path-7-inside-4_21_308" fill="white">
<path fill-rule="evenodd" clip-rule="evenodd" d="M26.9462 36.8158L23.0615 34.558L24.9569 38.8484L22.971 39.1315L24.5676 40.0566L21.2325 43.0422L26.0812 42.5467L25.7043 45.0441L27.0647 43.6197L28.7363 47.4034L29.6813 43.0197L31.6998 44.1893L30.7213 42.0725L35.2028 41.6146L31.2009 39.2887L32.6719 37.7484L30.7588 38.0212L31.6956 33.6757L28.2609 36.7504L27.2772 34.6225L26.9462 36.8158Z"/>
</mask>
<path d="M23.0615 34.558L23.564 33.6934L20.9031 32.1469L22.1468 34.9621L23.0615 34.558ZM26.9462 36.8158L26.4437 37.6804L27.7155 38.4196L27.935 36.965L26.9462 36.8158ZM24.9569 38.8484L25.098 39.8384L26.4051 39.652L25.8716 38.4443L24.9569 38.8484ZM22.971 39.1315L22.8299 38.1415L19.9712 38.5491L22.4696 39.9967L22.971 39.1315ZM24.5676 40.0566L25.2346 40.8017L26.2615 39.8824L25.069 39.1914L24.5676 40.0566ZM21.2325 43.0422L20.5655 42.2971L18.2724 44.3499L21.3342 44.037L21.2325 43.0422ZM26.0812 42.5467L27.07 42.6959L27.2625 41.4208L25.9796 41.5519L26.0812 42.5467ZM25.7043 45.0441L24.7155 44.8948L24.2436 48.0214L26.4275 45.7347L25.7043 45.0441ZM27.0647 43.6197L27.9794 43.2156L27.3748 41.847L26.3415 42.929L27.0647 43.6197ZM28.7363 47.4034L27.8215 47.8075L29.0652 50.6227L29.7138 47.6141L28.7363 47.4034ZM29.6813 43.0197L30.1826 42.1544L28.9934 41.4653L28.7037 42.8089L29.6813 43.0197ZM31.6998 44.1893L31.1984 45.0545L33.9343 46.6398L32.6075 43.7697L31.6998 44.1893ZM30.7213 42.0725L30.6196 41.0777L29.2255 41.2202L29.8136 42.4922L30.7213 42.0725ZM35.2028 41.6146L35.3045 42.6094L38.3662 42.2965L35.7053 40.75L35.2028 41.6146ZM31.2009 39.2887L30.4777 38.598L29.6014 39.5156L30.6984 40.1533L31.2009 39.2887ZM32.6719 37.7484L33.3951 38.4391L35.3894 36.3509L32.5308 36.7585L32.6719 37.7484ZM30.7588 38.0212L29.7813 37.8105L29.4787 39.2138L30.9 39.0112L30.7588 38.0212ZM31.6956 33.6757L32.6731 33.8864L33.3217 30.8779L31.0286 32.9306L31.6956 33.6757ZM28.2609 36.7504L27.3532 37.17L27.9205 38.3973L28.9279 37.4955L28.2609 36.7504ZM27.2772 34.6225L28.1849 34.2029L26.7859 31.1768L26.2884 34.4733L27.2772 34.6225ZM22.559 35.4226L26.4437 37.6804L27.4487 35.9512L23.564 33.6934L22.559 35.4226ZM25.8716 38.4443L23.9762 34.1539L22.1468 34.9621L24.0421 39.2525L25.8716 38.4443ZM23.1121 40.1215L25.098 39.8384L24.8157 37.8584L22.8299 38.1415L23.1121 40.1215ZM25.069 39.1914L23.4724 38.2663L22.4696 39.9967L24.0662 40.9219L25.069 39.1914ZM21.8995 43.7873L25.2346 40.8017L23.9006 39.3116L20.5655 42.2971L21.8995 43.7873ZM25.9796 41.5519L21.1308 42.0474L21.3342 44.037L26.1829 43.5415L25.9796 41.5519ZM26.6931 45.1933L27.07 42.6959L25.0924 42.3975L24.7155 44.8948L26.6931 45.1933ZM26.3415 42.929L24.9811 44.3534L26.4275 45.7347L27.7879 44.3103L26.3415 42.929ZM29.651 46.9993L27.9794 43.2156L26.15 44.0238L27.8215 47.8075L29.651 46.9993ZM28.7037 42.8089L27.7587 47.1927L29.7138 47.6141L30.6588 43.2304L28.7037 42.8089ZM32.2012 43.3241L30.1826 42.1544L29.1799 43.8849L31.1984 45.0545L32.2012 43.3241ZM29.8136 42.4922L30.7921 44.6089L32.6075 43.7697L31.629 41.6529L29.8136 42.4922ZM35.1011 40.6198L30.6196 41.0777L30.8229 43.0674L35.3045 42.6094L35.1011 40.6198ZM30.6984 40.1533L34.7003 42.4792L35.7053 40.75L31.7034 38.4241L30.6984 40.1533ZM31.9487 37.0578L30.4777 38.598L31.9241 39.9793L33.3951 38.4391L31.9487 37.0578ZM30.9 39.0112L32.813 38.7384L32.5308 36.7585L30.6177 37.0312L30.9 39.0112ZM30.718 33.465L29.7813 37.8105L31.7364 38.2319L32.6731 33.8864L30.718 33.465ZM28.9279 37.4955L32.3626 34.4208L31.0286 32.9306L27.5939 36.0053L28.9279 37.4955ZM26.3695 35.0422L27.3532 37.17L29.1686 36.3308L28.1849 34.2029L26.3695 35.0422ZM27.935 36.965L28.266 34.7718L26.2884 34.4733L25.9574 36.6666L27.935 36.965Z" fill="#01A4FF" mask="url(#path-7-inside-4_21_308)"/>
</svg>
