<svg width="49" height="40" viewBox="0 0 49 40" fill="none" xmlns="http://www.w3.org/2000/svg">
<path d="M10.3603 24.6216C10.3603 27.4118 8.09835 29.6737 5.30814 29.6737C2.51793 29.6737 0.256017 27.4118 0.256017 24.6216C0.256017 23.2204 0.825284 20.237 1.74758 17.6027C2.2086 16.286 2.75662 15.0601 3.36355 14.1644C3.97286 13.2651 4.63088 12.7142 5.30814 12.7142C5.9854 12.7142 6.64342 13.2651 7.25272 14.1644C7.85965 15.0601 8.40767 16.286 8.86869 17.6027C9.79099 20.237 10.3603 23.2204 10.3603 24.6216Z" fill="url(#paint0_linear_54_475)" stroke="#260164" stroke-width="0.1"/>
<path d="M29.3451 34.1216C29.3451 36.9118 27.0832 39.1737 24.293 39.1737C21.5028 39.1737 19.2409 36.9118 19.2409 34.1216C19.2409 32.7204 19.8102 29.737 20.7325 27.1027C21.1935 25.786 21.7415 24.5601 22.3484 23.6644C22.9577 22.7651 23.6158 22.2142 24.293 22.2142C24.9703 22.2142 25.6283 22.7651 26.2376 23.6644C26.8445 24.5601 27.3926 25.786 27.8536 27.1027C28.7759 29.737 29.3451 32.7204 29.3451 34.1216Z" fill="url(#paint1_linear_54_475)" stroke="#260164" stroke-width="0.1"/>
<path d="M48.33 24.6216C48.33 27.4118 46.0681 29.6737 43.2779 29.6737C40.4877 29.6737 38.2258 27.4118 38.2258 24.6216C38.2258 23.2204 38.795 20.237 39.7173 17.6027C40.1784 16.286 40.7264 15.0601 41.3333 14.1644C41.9426 13.2651 42.6006 12.7142 43.2779 12.7142C43.9552 12.7142 44.6132 13.2651 45.2225 14.1644C45.8294 15.0601 46.3774 16.286 46.8384 17.6027C47.7607 20.237 48.33 23.2204 48.33 24.6216Z" fill="url(#paint2_linear_54_475)" stroke="#260164" stroke-width="0.1"/>
<path d="M18.3322 11.7491L22.5956 0.538025H30.2539L25.4378 8.03842H29.7801L19.1217 20.5128L22.5956 11.7491H18.3322Z" fill="#6B59B1" stroke="#260164" stroke-width="0.1"/>
<defs>
<linearGradient id="paint0_linear_54_475" x1="5.30814" y1="12.6642" x2="5.30814" y2="29.7237" gradientUnits="userSpaceOnUse">
<stop stop-color="#2E10A4" stop-opacity="0"/>
<stop stop-color="#2E10A4" stop-opacity="0"/>
<stop offset="1" stop-color="#2E10A4"/>
</linearGradient>
<linearGradient id="paint1_linear_54_475" x1="24.293" y1="22.1642" x2="24.293" y2="39.2237" gradientUnits="userSpaceOnUse">
<stop stop-color="#2E10A4" stop-opacity="0"/>
<stop stop-color="#2E10A4" stop-opacity="0"/>
<stop offset="1" stop-color="#2E10A4"/>
</linearGradient>
<linearGradient id="paint2_linear_54_475" x1="43.2779" y1="12.6642" x2="43.2779" y2="29.7237" gradientUnits="userSpaceOnUse">
<stop stop-color="#2E10A4" stop-opacity="0"/>
<stop stop-color="#2E10A4" stop-opacity="0"/>
<stop offset="1" stop-color="#2E10A4"/>
</linearGradient>
</defs>
</svg>
